<svg width="44" height="44" viewBox="0 0 44 44" fill="none" xmlns="http://www.w3.org/2000/svg">
<mask id="mask0_393_2330" style="mask-type:alpha" maskUnits="userSpaceOnUse" x="10" y="10" width="24" height="24">
<rect x="10" y="10" width="24" height="24" fill="#D9D9D9"/>
</mask>
<g mask="url(#mask0_393_2330)">
<mask id="path-2-inside-1_393_2330" fill="white">
<path fill-rule="evenodd" clip-rule="evenodd" d="M19 12C15.134 12 12 15.134 12 19V25C12 28.866 15.134 32 19 32H25C28.866 32 32 28.866 32 25V19C32 15.134 28.866 12 25 12H19ZM21 26.2222L27.6667 19.5556L26.1111 18L21 23.1111L18.5556 20.6667L17 22.2222L21 26.2222Z"/>
</mask>
<path fill-rule="evenodd" clip-rule="evenodd" d="M19 12C15.134 12 12 15.134 12 19V25C12 28.866 15.134 32 19 32H25C28.866 32 32 28.866 32 25V19C32 15.134 28.866 12 25 12H19ZM21 26.2222L27.6667 19.5556L26.1111 18L21 23.1111L18.5556 20.6667L17 22.2222L21 26.2222Z" fill="#3A4893"/>
<path d="M27.6667 19.5556L29.4344 21.3233L31.2022 19.5556L29.4344 17.7878L27.6667 19.5556ZM21 26.2222L19.2322 27.99L21 29.7578L22.7678 27.99L21 26.2222ZM26.1111 18L27.8789 16.2322L26.1111 14.4645L24.3433 16.2322L26.1111 18ZM21 23.1111L19.2322 24.8789L21 26.6466L22.7678 24.8789L21 23.1111ZM18.5556 20.6667L20.3233 18.8989L18.5556 17.1311L16.7878 18.8989L18.5556 20.6667ZM17 22.2222L15.2322 20.4545L13.4645 22.2222L15.2322 23.99L17 22.2222ZM14.5 19C14.5 16.5147 16.5147 14.5 19 14.5V9.5C13.7533 9.5 9.5 13.7533 9.5 19H14.5ZM14.5 25V19H9.5V25H14.5ZM19 29.5C16.5147 29.5 14.5 27.4853 14.5 25H9.5C9.5 30.2467 13.7533 34.5 19 34.5V29.5ZM25 29.5H19V34.5H25V29.5ZM29.5 25C29.5 27.4853 27.4853 29.5 25 29.5V34.5C30.2467 34.5 34.5 30.2467 34.5 25H29.5ZM29.5 19V25H34.5V19H29.5ZM25 14.5C27.4853 14.5 29.5 16.5147 29.5 19H34.5C34.5 13.7533 30.2467 9.5 25 9.5V14.5ZM19 14.5H25V9.5H19V14.5ZM25.8989 17.7878L19.2322 24.4545L22.7678 27.99L29.4344 21.3233L25.8989 17.7878ZM24.3433 19.7678L25.8989 21.3233L29.4344 17.7878L27.8789 16.2322L24.3433 19.7678ZM22.7678 24.8789L27.8789 19.7678L24.3433 16.2322L19.2322 21.3433L22.7678 24.8789ZM16.7878 22.4344L19.2322 24.8789L22.7678 21.3433L20.3233 18.8989L16.7878 22.4344ZM18.7678 23.99L20.3233 22.4344L16.7878 18.8989L15.2322 20.4545L18.7678 23.99ZM22.7678 24.4545L18.7678 20.4545L15.2322 23.99L19.2322 27.99L22.7678 24.4545Z" fill="#3A4893" mask="url(#path-2-inside-1_393_2330)"/>
</g>
</svg>
